<svg id="logo-payoff" viewBox="119.452 0 1681.097 1080" xmlns="http://www.w3.org/2000/svg"><defs><style>#logo-payoff .cls-3{fill:#fff;}</style></defs><g class="logo-payoff-payoff" transform="matrix(1.579622, 0, 0, 1.579622, -625.908875, -312.468109)"><path class="cls-3" d="M 471.86 845.4 C 471.86 833.14 480.95 824.4 493.61 824.4 C 500.99 824.4 507.13 827.4 510.39 833.17 L 504.72 836.83 C 502.268 833.062 498.023 830.85 493.53 831 C 485.45 831 479.4 836.67 479.4 845.44 C 479.4 854.38 485.45 859.97 493.53 859.97 C 498.038 860.107 502.286 857.867 504.72 854.07 L 510.39 857.64 C 507.13 863.39 500.99 866.5 493.61 866.5 C 480.95 866.5 471.86 857.72 471.86 845.44"></path><path class="cls-3" d="M 515.61 845.4 C 515.61 833.14 524.7 824.4 537.05 824.4 C 549.4 824.4 558.41 833.1 558.41 845.4 C 558.41 857.7 549.41 866.46 537.05 866.46 C 524.69 866.46 515.61 857.68 515.61 845.4 M 550.88 845.4 C 550.88 836.63 544.97 830.96 537.05 830.96 C 529.13 830.96 523.15 836.63 523.15 845.4 C 523.15 854.17 529.15 859.93 537.05 859.93 C 544.95 859.93 550.88 854.18 550.88 845.4"></path><path class="cls-3" d="M 607.84 842.3 L 607.84 866 L 600.38 866 L 600.38 843.15 C 600.38 835.08 596.38 831.15 589.28 831.15 C 581.35 831.15 576.28 835.88 576.28 844.81 L 576.28 866 L 568.82 866 L 568.82 824.83 L 575.96 824.83 L 575.96 831 C 578.96 826.8 584.28 824.4 590.8 824.4 C 600.8 824.4 607.89 830.14 607.89 842.26"></path><path class="cls-3" d="M 660.76 842.3 L 660.76 866 L 653.3 866 L 653.3 843.15 C 653.3 835.08 649.3 831.15 642.2 831.15 C 634.27 831.15 629.15 835.88 629.15 844.81 L 629.15 866 L 621.69 866 L 621.69 824.83 L 628.83 824.83 L 628.83 831 C 631.83 826.8 637.15 824.4 643.67 824.4 C 653.67 824.4 660.76 830.14 660.76 842.26"></path><path class="cls-3" d="M 711.9 847.89 L 678.5 847.89 C 679.43 855.12 685.25 859.89 693.41 859.89 C 697.915 860.046 702.261 858.218 705.3 854.89 L 709.41 859.71 C 705.68 864.05 700.02 866.39 693.18 866.39 C 679.9 866.39 671.04 857.61 671.04 845.33 C 671.04 833.05 679.82 824.33 691.7 824.33 C 703.58 824.33 712.05 832.87 712.05 845.53 C 712.05 846.15 711.97 847.08 711.9 847.78 M 678.5 842.42 L 704.9 842.42 C 703.78 832.259 692.079 827.121 683.84 833.172 C 680.844 835.371 678.907 838.726 678.5 842.42"></path><path class="cls-3" d="M 718.6 845.4 C 718.6 833.14 727.69 824.4 740.35 824.4 C 747.73 824.4 753.87 827.4 757.12 833.17 L 751.46 836.83 C 749.007 833.063 744.763 830.852 740.27 831 C 732.19 831 726.13 836.67 726.13 845.44 C 726.13 854.38 732.19 859.97 740.27 859.97 C 744.777 860.105 749.025 857.865 751.46 854.07 L 757.12 857.64 C 753.87 863.39 747.73 866.5 740.35 866.5 C 727.69 866.5 718.6 857.72 718.6 845.44"></path><path class="cls-3" d="M 790.46 863.58 C 787.881 865.548 784.702 866.565 781.46 866.46 C 773.15 866.46 768.46 861.87 768.46 853.56 L 768.46 831 L 761.46 831 L 761.46 824.86 L 768.46 824.86 L 768.46 815.86 L 775.91 815.86 L 775.91 824.86 L 787.71 824.86 L 787.71 831 L 775.91 831 L 775.91 853.29 C 775.91 857.72 778.24 860.21 782.36 860.21 C 784.464 860.23 786.513 859.543 788.18 858.26 L 790.46 863.58 Z"></path><path class="cls-3" d="M 1182.82 862 L 1214 825.6 C 1215.59 823.675 1218.666 824.194 1219.538 826.532 C 1219.943 827.618 1219.738 828.837 1219 829.73 L 1187.79 866.13 C 1186.197 868.031 1183.142 867.495 1182.292 865.164 C 1181.898 864.082 1182.11 862.872 1182.85 861.99"></path><path class="cls-3" d="M 813.19 862 L 844.39 825.61 C 845.98 823.685 849.056 824.204 849.928 826.542 C 850.333 827.628 850.128 828.847 849.39 829.74 L 818.19 866.14 C 816.508 867.971 813.475 867.295 812.729 864.923 C 812.415 863.924 812.606 862.834 813.24 862"></path><path class="cls-3" d="M 908.11 847.89 L 874.71 847.89 C 875.64 855.12 881.46 859.89 889.62 859.89 C 894.121 860.044 898.464 858.217 901.5 854.89 L 905.62 859.71 C 901.89 864.05 896.22 866.39 889.39 866.39 C 876.1 866.39 867.25 857.61 867.25 845.33 C 867.25 833.05 876.03 824.33 887.91 824.33 C 899.79 824.33 908.26 832.87 908.26 845.53 C 908.26 846.15 908.18 847.08 908.11 847.78 M 874.71 842.42 L 901.11 842.42 C 899.99 832.259 888.289 827.121 880.05 833.172 C 877.054 835.371 875.117 838.726 874.71 842.42"></path><path class="cls-3" d="M 957.68 842.3 L 957.68 866 L 950.23 866 L 950.23 843.15 C 950.23 835.08 946.18 831.15 939.12 831.15 C 931.2 831.15 926.12 835.88 926.12 844.81 L 926.12 866 L 918.67 866 L 918.67 824.83 L 925.81 824.83 L 925.81 831 C 928.81 826.8 934.12 824.4 940.64 824.4 C 950.64 824.4 957.73 830.14 957.73 842.26"></path><path class="cls-3" d="M 1011.15 824.83 L 1011.15 860.4 C 1011.15 874.92 1003.77 881.52 989.79 881.52 C 982.26 881.52 974.64 879.43 970.14 875.39 L 973.71 869.64 C 977.52 872.9 983.5 875 989.56 875 C 999.27 875 1003.69 870.49 1003.69 861.18 L 1003.69 857.91 C 1000.12 862.18 994.76 864.28 988.86 864.28 C 976.97 864.28 967.97 856.21 967.97 844.28 C 967.97 832.35 976.97 824.4 988.86 824.4 C 995 824.4 1000.59 826.65 1004.08 831.15 L 1004.08 824.79 L 1011.15 824.83 Z M 1003.85 844.32 C 1003.85 836.32 997.94 830.96 989.72 830.96 C 981.5 830.96 975.5 836.32 975.5 844.32 C 975.5 852.32 981.4 857.76 989.72 857.76 C 998.04 857.76 1003.85 852.24 1003.85 844.32"></path><path class="cls-3" d="M 1058 841.14 L 1058 866 L 1051 866 L 1051 860.56 C 1048.51 864.29 1043.93 866.47 1037.48 866.47 C 1028.16 866.47 1022.26 861.47 1022.26 854.35 C 1022.26 847.75 1026.54 842.35 1038.81 842.35 L 1050.61 842.35 L 1050.61 840.88 C 1050.61 834.58 1046.96 830.88 1039.61 830.88 C 1034.9 830.841 1030.316 832.403 1026.61 835.31 L 1023.49 829.72 C 1027.77 826.3 1033.9 824.44 1040.49 824.44 C 1051.75 824.44 1058.12 829.87 1058.12 841.14 M 1050.66 853.4 L 1050.66 847.66 L 1039.16 847.66 C 1031.78 847.66 1029.69 850.53 1029.69 854.03 C 1029.69 858.15 1033.11 860.71 1038.78 860.71 C 1044.45 860.71 1048.78 858.15 1050.66 853.4"></path><path class="cls-3" d="M 1111.48 824.83 L 1111.48 860.4 C 1111.48 874.92 1104.1 881.52 1090.12 881.52 C 1082.59 881.52 1074.97 879.43 1070.47 875.39 L 1074.04 869.64 C 1077.85 872.9 1083.83 875 1089.89 875 C 1099.6 875 1104.02 870.49 1104.02 861.18 L 1104.02 857.91 C 1100.45 862.18 1095.09 864.28 1089.19 864.28 C 1077.3 864.28 1068.3 856.21 1068.3 844.28 C 1068.3 832.35 1077.3 824.4 1089.19 824.4 C 1095.33 824.4 1100.92 826.65 1104.41 831.15 L 1104.41 824.79 L 1111.48 824.83 Z M 1104.18 844.32 C 1104.18 836.32 1098.27 830.96 1090.05 830.96 C 1081.83 830.96 1075.83 836.32 1075.83 844.32 C 1075.83 852.32 1081.73 857.76 1090.05 857.76 C 1098.37 857.76 1104.18 852.24 1104.18 844.32"></path><path class="cls-3" d="M 1162.78 847.89 L 1129.38 847.89 C 1130.31 855.12 1136.13 859.89 1144.29 859.89 C 1148.791 860.044 1153.134 858.217 1156.17 854.89 L 1160.29 859.71 C 1156.56 864.05 1150.89 866.39 1144.06 866.39 C 1130.77 866.39 1121.92 857.61 1121.92 845.33 C 1121.92 833.05 1130.7 824.33 1142.58 824.33 C 1154.46 824.33 1162.93 832.87 1162.93 845.53 C 1162.93 846.15 1162.85 847.08 1162.78 847.78 M 1129.38 842.42 L 1155.78 842.42 C 1154.66 832.259 1142.959 827.121 1134.72 833.172 C 1131.724 835.371 1129.787 838.726 1129.38 842.42"></path><path class="cls-3" d="M 1241.05 845.4 C 1241.05 833.14 1250.13 824.4 1262.8 824.4 C 1270.17 824.4 1276.31 827.4 1279.57 833.17 L 1273.9 836.83 C 1271.467 833.031 1267.219 830.787 1262.71 830.92 C 1254.64 830.92 1248.58 836.59 1248.58 845.36 C 1248.58 854.3 1254.64 859.89 1262.71 859.89 C 1267.218 860.027 1271.466 857.787 1273.9 853.99 L 1279.57 857.56 C 1276.31 863.31 1270.17 866.42 1262.8 866.42 C 1250.13 866.42 1241.05 857.64 1241.05 845.36"></path><path class="cls-3" d="M 1284.8 845.4 C 1284.8 833.14 1293.89 824.4 1306.23 824.4 C 1318.57 824.4 1327.59 833.1 1327.59 845.4 C 1327.59 857.7 1318.59 866.46 1306.23 866.46 C 1293.87 866.46 1284.8 857.68 1284.8 845.4 M 1320.06 845.4 C 1320.06 836.63 1314.16 830.96 1306.23 830.96 C 1298.3 830.96 1292.33 836.63 1292.33 845.4 C 1292.33 854.17 1298.33 859.93 1306.23 859.93 C 1314.13 859.93 1320.06 854.18 1320.06 845.4"></path><path class="cls-3" d="M 1377 842.3 L 1377 866 L 1369.54 866 L 1369.54 843.15 C 1369.54 835.08 1365.54 831.15 1358.44 831.15 C 1350.51 831.15 1345.44 835.88 1345.44 844.81 L 1345.44 866 L 1338 866 L 1338 824.83 L 1345.14 824.83 L 1345.14 831 C 1348.14 826.8 1353.46 824.4 1359.98 824.4 C 1369.98 824.4 1377.07 830.14 1377.07 842.26"></path><polygon class="cls-3" points="1426.53 824.83 1408.5 865.99 1400.89 865.99 1382.87 824.83 1390.64 824.83 1404.78 857.83 1419.22 824.83 1426.53 824.83"></polygon><path class="cls-3" d="M 1469.42 847.89 L 1436 847.89 C 1436.93 855.12 1442.75 859.89 1450.91 859.89 C 1455.415 860.046 1459.761 858.218 1462.8 854.89 L 1466.91 859.71 C 1463.18 864.05 1457.52 866.39 1450.68 866.39 C 1437.4 866.39 1428.54 857.61 1428.54 845.33 C 1428.54 833.05 1437.32 824.33 1449.2 824.33 C 1461.08 824.33 1469.55 832.87 1469.55 845.53 C 1469.55 846.15 1469.47 847.08 1469.4 847.78 M 1436 842.42 L 1462.4 842.42 C 1461.28 832.259 1449.579 827.121 1441.34 833.172 C 1438.344 835.371 1436.407 838.726 1436 842.42"></path><path class="cls-3" d="M 1502.07 824.44 L 1502.07 831.66 C 1501.502 831.595 1500.931 831.569 1500.36 831.58 C 1492.36 831.58 1487.36 836.47 1487.36 845.49 L 1487.36 866 L 1479.9 866 L 1479.9 824.83 L 1487.04 824.83 L 1487.04 831.74 C 1489.68 826.92 1494.81 824.44 1502.04 824.44"></path><path class="cls-3" d="M 1536.1 863.58 C 1533.524 865.554 1530.343 866.572 1527.1 866.46 C 1518.79 866.46 1514.1 861.87 1514.1 853.56 L 1514.1 831 L 1507.1 831 L 1507.1 824.86 L 1514.1 824.86 L 1514.1 815.86 L 1521.56 815.86 L 1521.56 824.86 L 1533.36 824.86 L 1533.36 831 L 1521.56 831 L 1521.56 853.29 C 1521.56 857.72 1523.88 860.21 1528 860.21 C 1530.107 860.229 1532.159 859.543 1533.83 858.26 L 1536.1 863.58 Z"></path></g><g transform="matrix(1.579622, 0, 0, 1.579622, -625.908875, -312.468109)"><path class="cls-3" d="M 1142.21 533 C 1143.4 531.48 1144.41 530.11 1145.5 528.81 L 1266.05 385.41 L 1313.23 329.24 C 1317.05 324.69 1318.23 319.59 1316.01 314.01 C 1314.189 309.035 1309.649 305.567 1304.37 305.12 C 1298.19 304.35 1293.79 307.4 1289.94 312 C 1240.2 371.333 1190.42 430.613 1140.6 489.84 C 1134.92 496.59 1129.21 503.31 1123.25 510.36 C 1119.25 505.62 1115.65 501.36 1112.06 497.08 C 1089.353 469.98 1066.667 442.877 1044 415.77 C 1040.58 411.67 1036.35 409.48 1031 409.97 C 1025.21 410.49 1021 413.41 1018.95 418.88 C 1016.86 424.57 1017.95 429.77 1021.95 434.51 C 1043.61 460.243 1065.227 486.017 1086.8 511.83 C 1092.66 518.823 1098.507 525.823 1104.34 532.83 C 1102.92 534.61 1101.88 535.98 1100.79 537.28 C 1054.31 592.613 1007.823 647.947 961.33 703.28 C 946.597 720.807 931.867 738.33 917.14 755.85 C 912.67 761.18 911.98 767.79 915.14 773.19 C 918.3 778.59 924 781.59 930.24 779.82 C 934.036 778.627 937.418 776.388 940 773.36 C 996.953 705.867 1053.797 638.293 1110.53 570.64 C 1114.7 565.64 1118.9 560.76 1123.29 555.64 C 1124.7 557.22 1125.76 558.34 1126.75 559.52 L 1176.57 618.96 C 1186.07 630.293 1195.577 641.627 1205.09 652.96 C 1209.09 657.63 1214.02 659.62 1220.09 658.02 C 1226.35 656.37 1229.86 652.12 1230.8 645.85 C 1231.49 641.25 1229.7 637.38 1226.8 633.85 C 1210.167 614.063 1193.563 594.25 1176.99 574.41 L 1142.21 533 M 794.51 519.7 L 794.51 513.4 C 794.51 492.38 794.51 471.36 794.51 450.34 C 794.51 443.84 794.51 443.83 801.25 443.83 L 942.91 443.83 C 944.78 443.83 946.65 443.83 948.51 443.73 C 956.011 443.271 961.826 436.994 961.71 429.48 C 961.71 420.89 955.26 415.05 945.71 415.04 C 891.63 415.04 837.553 415.04 783.48 415.04 C 771.15 415.04 765.94 420.29 765.94 432.69 C 765.94 497.01 765.94 561.343 765.94 625.69 C 765.94 630.05 765.81 634.41 765.94 638.77 C 766.26 647.23 771.67 652.65 780.04 653.1 C 781.44 653.17 782.85 653.19 784.25 653.19 L 943.25 653.19 C 944.96 653.19 946.67 653.19 948.38 653.05 C 954.28 652.73 958.38 649.67 960.62 644.39 C 964.89 634.49 957.68 624.39 946.34 624.39 C 897.873 624.39 849.407 624.39 800.94 624.39 L 794.54 624.39 L 794.54 618.66 C 794.54 597.327 794.54 575.993 794.54 554.66 C 794.54 548.56 794.54 548.54 800.73 548.54 L 942.82 548.54 C 944.82 548.54 946.88 548.54 948.89 548.39 C 953.499 548.128 957.635 545.472 959.79 541.39 C 965.55 531.29 958.38 519.82 946.22 519.81 C 897.747 519.77 849.28 519.77 800.82 519.81 L 794.51 519.81 M 1378.2 443.94 L 1378.2 635.45 C 1378.2 636.86 1378.12 638.26 1378.2 639.66 C 1378.76 646.66 1384.02 652.29 1390.46 652.95 C 1398.11 653.72 1404.58 649.83 1406.35 642.95 C 1406.896 640.206 1407.101 637.405 1406.96 634.61 C 1406.96 573.73 1406.96 512.847 1406.96 451.96 C 1406.96 442.81 1406.06 443.84 1415.32 443.83 C 1448.82 443.83 1482.323 443.83 1515.83 443.83 C 1517.54 443.83 1519.26 443.83 1520.97 443.73 C 1528.328 443.41 1534.135 437.364 1534.16 430 C 1534.37 421.19 1528.16 415.09 1518.72 415.08 C 1438.16 415.08 1357.6 415.08 1277.04 415.08 C 1276.42 415.08 1275.79 415.08 1275.17 415.08 C 1269.055 415.444 1263.84 419.636 1262.17 425.53 C 1259.45 435.53 1266.17 443.79 1277.29 443.81 C 1308.77 443.877 1340.247 443.877 1371.72 443.81 L 1378.15 443.81 M 1505.38 334 L 1505.38 339.74 C 1505.38 351.88 1505.26 364.03 1505.38 376.16 C 1505.5 384.7 1511.64 390.85 1519.69 390.97 C 1527.426 391.228 1533.878 385.109 1534.03 377.37 C 1534.183 344.997 1534.183 312.623 1534.03 280.25 C 1534.03 272.94 1528.48 267.61 1521.03 266.8 C 1514.056 266.057 1507.621 270.629 1506.03 277.46 C 1505.26 280.89 1505.38 284.54 1505.32 288.1 C 1505.21 293.64 1505.32 299.18 1505.32 304.62 L 1461.6 304.62 C 1462.78 302.97 1463.48 301.82 1464.34 300.79 C 1478.147 284.337 1491.967 267.893 1505.8 251.46 C 1514.11 241.58 1522.54 231.78 1530.67 221.75 C 1537.41 213.45 1534.04 201.52 1524.23 198.65 C 1517.57 196.7 1512.23 198.87 1507.7 204.24 C 1478.567 239.107 1449.333 273.907 1420 308.64 C 1415.55 313.91 1413.89 319.52 1416.79 325.83 C 1419.69 332.14 1425.17 334.09 1431.79 334.05 C 1447.06 333.96 1462.32 334.05 1477.59 334.05 L 1505.36 334.05 M 1377 253.43 L 1378.21 253.69 L 1378.21 259.06 C 1378.21 297.66 1378.21 336.257 1378.21 374.85 C 1378.21 384.4 1384.09 390.95 1392.58 390.99 C 1400.91 391.04 1406.97 384.71 1406.98 375.45 C 1407.04 321.45 1407.04 267.45 1406.98 213.45 C 1406.98 205.93 1403.74 201.12 1397.62 198.85 C 1391.5 196.58 1385.62 198.32 1380.62 204.21 C 1363.167 224.91 1345.733 245.627 1328.32 266.36 C 1322.15 273.71 1322.55 282.36 1329.18 287.91 C 1335.81 293.46 1344.44 292.13 1350.54 284.91 C 1359.34 274.417 1368.147 263.943 1376.96 253.49" style=""></path><path class="cls-3" d="M 473.72 428.84 C 475.48 423.27 477.65 418.05 483.86 415.96 C 490.07 413.87 495.5 415.68 499.97 420.33 C 515.59 436.63 531.197 452.943 546.79 469.27 C 581.44 505.51 615.97 541.85 650.79 577.9 C 658.23 585.6 666.79 592.19 674.88 599.29 L 673.96 601.07 C 674.06 599.35 674.23 597.64 674.23 595.92 C 674.23 542.353 674.23 488.783 674.23 435.21 C 674.225 432.568 674.395 429.929 674.74 427.31 C 676.256 416.461 688.947 411.321 697.585 418.059 C 700.32 420.192 702.182 423.251 702.82 426.66 C 703.136 428.496 703.276 430.358 703.24 432.22 C 703.24 500.267 703.24 568.317 703.24 636.37 C 703.24 644.7 700.33 649.68 694.09 652.14 C 687.85 654.6 682.24 652.83 676.58 646.91 C 633.213 601.577 589.837 556.243 546.45 510.91 C 533.957 497.857 521.49 484.79 509.05 471.71 C 507.47 470.05 505.96 468.32 504.42 466.62 L 503.12 467.1 L 503.12 472.39 C 503.12 526.737 503.12 581.07 503.12 635.39 C 503.177 637.252 503.074 639.116 502.81 640.96 C 501.58 648.13 496.33 652.79 489.46 652.96 C 481.71 653.16 476.32 648.96 474.62 641.59 C 474.349 640.723 474.015 639.878 473.62 639.06 L 473.62 428.84" style=""></path><path class="cls-3" d="M 1142.21 533 L 1176.82 574.33 C 1193.42 594.15 1210.023 613.967 1226.63 633.78 C 1229.57 637.28 1231.36 641.15 1230.63 645.78 C 1229.69 652.05 1226.18 656.3 1219.92 657.95 C 1213.85 659.55 1208.92 657.56 1204.92 652.89 C 1195.38 641.59 1185.873 630.257 1176.4 618.89 C 1159.787 599.07 1143.18 579.253 1126.58 559.44 C 1125.58 558.26 1124.58 557.14 1123.12 555.56 C 1118.73 560.73 1114.53 565.64 1110.36 570.56 C 1053.58 638.187 996.75 705.78 939.87 773.34 C 937.288 776.368 933.906 778.607 930.11 779.8 C 923.87 781.57 918.04 778.45 915.01 773.17 C 911.98 767.89 912.59 761.17 917.01 755.83 C 931.71 738.277 946.443 720.753 961.21 703.26 L 1100.67 537.26 C 1101.76 535.95 1102.8 534.58 1104.22 532.8 C 1098.38 525.8 1092.533 518.8 1086.68 511.8 C 1065.08 486.013 1043.463 460.24 1021.83 434.48 C 1017.83 429.74 1016.74 424.54 1018.83 418.85 C 1020.83 413.38 1025.09 410.46 1030.88 409.94 C 1036.28 409.45 1040.51 411.65 1043.88 415.74 C 1066.547 442.853 1089.243 469.957 1111.97 497.05 C 1115.56 501.33 1119.17 505.59 1123.16 510.33 C 1129.16 503.28 1134.83 496.56 1140.51 489.81 C 1190.37 430.603 1240.18 371.333 1289.94 312 C 1293.79 307.4 1298.19 304.35 1304.37 305.12 C 1309.649 305.567 1314.189 309.035 1316.01 314.01 C 1318.21 319.59 1317.01 324.69 1313.23 329.24 C 1297.497 347.96 1281.77 366.68 1266.05 385.4 C 1225.87 433.207 1185.687 481.01 1145.5 528.81 C 1144.41 530.11 1143.4 531.48 1142.21 533"></path><path class="cls-3" d="M 794.51 519.7 L 800.82 519.7 C 849.287 519.7 897.753 519.7 946.22 519.7 C 958.38 519.7 965.55 531.18 959.79 541.28 C 957.635 545.362 953.499 548.018 948.89 548.28 C 946.89 548.43 944.89 548.43 942.82 548.43 L 800.7 548.43 C 794.53 548.43 794.51 548.43 794.51 554.55 C 794.51 575.883 794.51 597.217 794.51 618.55 L 794.51 624.28 L 800.91 624.28 C 849.37 624.28 897.837 624.28 946.31 624.28 C 957.65 624.28 964.86 634.35 960.59 644.28 C 958.32 649.56 954.25 652.62 948.35 652.94 C 946.64 653.03 944.93 653.08 943.22 653.08 L 784.22 653.08 C 782.82 653.08 781.41 653.08 780.01 652.99 C 771.64 652.54 766.23 647.12 765.91 638.66 C 765.75 634.3 765.91 629.94 765.91 625.58 C 765.91 561.26 765.91 496.943 765.91 432.63 C 765.91 420.23 771.12 414.98 783.45 414.98 C 837.517 414.98 891.593 414.98 945.68 414.98 C 955.25 414.98 961.68 420.82 961.68 429.41 C 961.796 436.924 955.981 443.201 948.48 443.66 C 946.62 443.79 944.75 443.76 942.88 443.76 L 801.25 443.76 C 794.52 443.76 794.51 443.76 794.51 450.27 C 794.51 471.29 794.51 492.313 794.51 513.34 L 794.51 519.7 Z"></path><path class="cls-3" d="M 1378.2 443.83 L 1371.77 443.83 C 1340.29 443.83 1308.813 443.83 1277.34 443.83 C 1266.21 443.83 1259.5 435.56 1262.22 425.55 C 1263.89 419.656 1269.105 415.464 1275.22 415.1 C 1275.84 415.04 1276.47 415.1 1277.09 415.1 C 1357.65 415.1 1438.21 415.1 1518.77 415.1 C 1528.22 415.1 1534.42 421.21 1534.21 430.02 C 1534.174 437.384 1528.358 443.42 1521 443.73 C 1519.29 443.85 1517.57 443.83 1515.86 443.83 C 1482.353 443.83 1448.85 443.83 1415.35 443.83 C 1406.09 443.83 1406.99 442.83 1406.99 451.96 C 1406.99 512.853 1406.99 573.737 1406.99 634.61 C 1407.131 637.405 1406.926 640.206 1406.38 642.95 C 1404.61 649.83 1398.14 653.72 1390.49 652.95 C 1384.05 652.29 1378.79 646.61 1378.23 639.66 C 1378.12 638.27 1378.23 636.86 1378.23 635.46 L 1378.23 443.83 L 1378.2 443.83 Z"></path><path class="cls-3" d="M 1505.38 334 L 1477.61 334 C 1462.34 334 1447.08 333.94 1431.81 334 C 1425.21 334 1419.7 332 1416.81 325.78 C 1413.92 319.56 1415.57 313.86 1420.02 308.59 C 1449.353 273.863 1478.593 239.07 1507.74 204.21 C 1512.23 198.84 1517.61 196.67 1524.27 198.62 C 1534.08 201.49 1537.45 213.42 1530.71 221.72 C 1522.58 231.72 1514.15 241.55 1505.84 251.44 C 1492.02 267.88 1478.2 284.32 1464.38 300.76 C 1463.52 301.76 1462.82 302.94 1461.64 304.59 L 1505.36 304.59 C 1505.36 299.15 1505.28 293.59 1505.36 288.07 C 1505.42 284.51 1505.3 280.86 1506.07 277.43 C 1507.661 270.599 1514.096 266.027 1521.07 266.77 C 1528.52 267.58 1534.07 272.91 1534.07 280.22 C 1534.21 312.593 1534.21 344.967 1534.07 377.34 C 1533.918 385.079 1527.466 391.198 1519.73 390.94 C 1511.73 390.82 1505.53 384.67 1505.42 376.13 C 1505.25 364 1505.42 351.85 1505.42 339.71 L 1505.42 334"></path><path class="cls-3" d="M 1377 253.43 C 1368.193 263.897 1359.387 274.37 1350.58 284.85 C 1344.48 292.12 1335.79 293.38 1329.22 287.85 C 1322.65 282.32 1322.22 273.65 1328.36 266.3 C 1345.773 245.56 1363.207 224.843 1380.66 204.15 C 1385.66 198.26 1391.42 196.48 1397.66 198.79 C 1403.9 201.1 1407.02 205.87 1407.02 213.39 C 1407.067 267.39 1407.067 321.39 1407.02 375.39 C 1407.02 384.65 1400.95 390.98 1392.62 390.93 C 1384.13 390.93 1378.25 384.34 1378.25 374.79 C 1378.25 336.19 1378.25 297.593 1378.25 259 L 1378.25 253.63 L 1377.04 253.37"></path></g></svg>